<svg width="39" height="34" viewBox="0 0 39 34" fill="none" xmlns="http://www.w3.org/2000/svg">
<path fill-rule="evenodd" clip-rule="evenodd" d="M4.50106 0.567383C3.39588 0.567383 2.33597 0.997578 1.55449 1.76333C0.773014 2.52908 0.333984 3.56766 0.333984 4.6506V29.1499C0.333984 31.4039 2.20084 33.2331 4.50106 33.2331H34.2659C35.3711 33.2331 36.431 32.8029 37.2125 32.0372C37.9939 31.2714 38.433 30.2329 38.433 29.1499V9.31714C38.433 8.2342 37.9939 7.19562 37.2125 6.42987C36.431 5.66411 35.3711 5.23392 34.2659 5.23392H18.7882C18.6958 5.23392 18.6046 5.21283 18.522 5.17234C18.4393 5.13184 18.3674 5.07304 18.3119 5.00059L16.1689 2.20067C15.3831 1.17403 14.1449 0.567383 12.8352 0.567383H4.50106ZM10.2269 19.5892C11.6225 19.5892 12.7539 18.4578 12.7539 17.0622C12.7539 15.6666 11.6225 14.5352 10.2269 14.5352C8.83125 14.5352 7.69987 15.6666 7.69987 17.0622C7.69987 18.4578 8.83125 19.5892 10.2269 19.5892ZM28.7299 19.5892C30.1255 19.5892 31.2569 18.4578 31.2569 17.0622C31.2569 15.6666 30.1255 14.5352 28.7299 14.5352C27.3342 14.5352 26.2029 15.6666 26.2029 17.0622C26.2029 18.4578 27.3342 19.5892 28.7299 19.5892Z" fill="#5A5A5A"/>
<path fill-rule="evenodd" clip-rule="evenodd" d="M4.50843 6.88037C3.34082 6.88037 2.01259 6.88037 0.517254 6.88037C0.356676 6.88037 0.491935 6.88037 0.33985 6.88057L0.339844 29.3924C0.339844 31.514 2.20669 33.2359 4.50692 33.2359H34.2717C35.3769 33.2359 36.4369 32.8309 37.2184 32.1101C37.9998 31.3893 38.4389 30.4117 38.4389 29.3924V10.7239C38.4389 9.70452 37.9998 8.72691 37.2184 8.00611C36.4369 7.28532 35.3769 6.88037 34.2717 6.88037H18.794C18.7016 6.88037 18.6005 6.88037 18.5094 6.88037C18.4183 6.88037 18.3717 6.88037 18.2947 6.88037H16.1946C14.8748 6.88043 14.2043 6.88037 12.8946 6.88037H4.50843ZM28.7299 19.5907C30.1255 19.5907 31.2569 18.4593 31.2569 17.0637C31.2569 15.668 30.1255 14.5367 28.7299 14.5367C27.3343 14.5367 26.2029 15.668 26.2029 17.0637C26.2029 18.4593 27.3343 19.5907 28.7299 19.5907ZM10.2276 19.5909C11.6232 19.5909 12.7546 18.4595 12.7546 17.0639C12.7546 15.6683 11.6232 14.5369 10.2276 14.5369C8.83193 14.5369 7.70055 15.6683 7.70055 17.0639C7.70055 18.4595 8.83193 19.5909 10.2276 19.5909Z" fill="#D5D5D5"/>
</svg>
