<svg width="193" height="49" viewBox="0 0 193 49" fill="none" xmlns="http://www.w3.org/2000/svg">
<path d="M13.8164 15.3931L1.39375 47.1452L1.39375 15.3931L13.8164 15.3931Z" fill="white"/>
<path d="M29.9648 15.3853L1.75156 47.775L15.2086 15.3853L29.9648 15.3853Z" fill="white"/>
<path d="M1.38948 14.2114L1.38949 0.883328L19.6055 0.883301L14.4283 14.2114L1.38948 14.2114Z" fill="white"/>
<path d="M30.2906 14.2784L15.5794 14.2784L20.3202 0.890156L30.2906 14.2784Z" fill="white"/>
<path d="M49.6181 30.3455C52.7201 30.3455 55.2061 29.5095 57.0761 27.8375C58.9681 26.1435 59.9141 23.6025 59.9141 20.2145C59.9141 16.8265 58.8471 14.1315 56.7131 12.1295C54.6011 10.1275 51.9831 9.12649 48.8591 9.12649C46.8571 9.12649 45.1191 9.18149 43.6451 9.29149V30.0815C45.0751 30.2575 47.0661 30.3455 49.6181 30.3455ZM48.8591 7.67449C52.4891 7.67449 55.5251 8.80749 57.9671 11.0735C60.4091 13.3175 61.6301 16.3755 61.6301 20.2475C61.6301 22.2055 61.3111 23.9435 60.6731 25.4615C60.0571 26.9575 59.1991 28.1565 58.0991 29.0585C55.8331 30.8845 53.0061 31.7975 49.6181 31.7975C47.3961 31.7975 44.8771 31.6765 42.0611 31.4345V7.90549C44.3051 7.75149 46.5711 7.67449 48.8591 7.67449ZM68.5743 31.5005V10.0835H70.0923V31.5005H68.5743ZM79.0726 24.0755L76.0036 31.5005H74.4526L83.4286 9.95149H84.3196L93.3616 31.5005H91.6786L88.5766 24.0755H79.0726ZM83.7916 12.3935C83.4616 13.3835 83.1646 14.2085 82.9006 14.8685L79.6006 22.7885H88.0486L84.7816 14.9015C84.2756 13.6695 83.9456 12.8335 83.7916 12.3935ZM107.64 30.3785H106.749L100.512 15.2315C100.248 14.6375 99.9841 13.9445 99.7201 13.1525C99.7201 13.1745 99.6981 13.2955 99.6541 13.5155C99.6321 13.7355 99.5991 14.0325 99.5551 14.4065C99.5111 14.7585 99.4671 15.0555 99.4231 15.2975L96.9481 31.5005H95.4631L98.9611 9.95149H99.8521L106.518 25.7585C107.046 27.0785 107.31 27.7715 107.31 27.8375C107.464 27.3755 107.761 26.6935 108.201 25.7915L115.626 9.95149H116.517L119.784 31.5005H118.2L115.857 15.2315C115.703 14.1535 115.626 13.4385 115.626 13.0865L114.669 15.2645L107.64 30.3785ZM125.454 31.5005V10.0835H126.972V31.5005H125.454ZM134.897 31.5005V9.95149H135.623L149.681 26.1215C150.187 26.6935 150.649 27.2655 151.067 27.8375C151.507 28.3875 151.738 28.6735 151.76 28.6955C151.716 28.1675 151.694 27.1335 151.694 25.5935V10.0835H153.212V31.6325H152.486L138.164 15.1985L136.349 12.9875C136.393 13.4275 136.415 14.4615 136.415 16.0895V31.5005H134.897ZM167.993 30.3785C170.809 30.3785 173.064 29.6195 174.758 28.1015C176.474 26.5835 177.332 24.2955 177.332 21.2375C177.332 18.1795 176.364 15.7485 174.428 13.9445C172.514 12.1405 170.149 11.2385 167.333 11.2385C165.331 11.2385 163.791 11.2825 162.713 11.3705V30.1475C164.033 30.3015 165.793 30.3785 167.993 30.3785ZM167.333 9.88549C170.633 9.88549 173.383 10.9085 175.583 12.9545C177.805 14.9785 178.916 17.7395 178.916 21.2375C178.916 24.7355 177.893 27.3645 175.847 29.1245C173.823 30.8845 171.205 31.7645 167.993 31.7645C165.771 31.7645 163.483 31.6545 161.129 31.4345V10.0835C162.889 9.95149 164.957 9.88549 167.333 9.88549Z" fill="white"/>
</svg>
